<svg width="494" height="406" viewBox="0 0 494 406" fill="none" xmlns="http://www.w3.org/2000/svg">
<mask id="mask0_18_130" style="mask-type:alpha" maskUnits="userSpaceOnUse" x="0" y="0" width="494" height="406">
<rect width="494" height="406" fill="white"/>
</mask>
<g mask="url(#mask0_18_130)">
<path d="M210.741 50.0139C257.769 35.7099 299.052 -0.387263 335.273 0.403383C371.494 1.19404 402.79 38.8625 418.931 78.464C435 118.002 435.906 159.336 446.826 202.552C457.609 245.778 478.478 290.948 469.573 327.979C460.74 365.074 422.271 394.019 381.979 402.398C341.76 410.84 299.717 398.715 265.707 386.346C231.77 374.041 205.59 361.513 173.264 349.71C140.937 337.906 102.327 326.837 67.7894 299.583C33.252 272.33 2.77965 228.756 1.90637 184.462C1.03309 140.168 29.6139 95.0276 70.3198 76.0968C111.026 57.166 163.72 64.4548 210.741 50.0139Z" fill="#EE2555" fill-opacity="0.41"/>
<path d="M199.242 299C186.026 299 172.829 298.764 159.652 298.292C140.824 297.617 121.355 296.92 103.259 286.91C90.6007 279.908 79.3893 268.673 70.8378 254.42C65.1221 244.76 60.9311 234.28 58.412 223.348C53.713 203.444 53.873 182.706 58.8787 162.878C60.6329 156.079 63.0512 149.468 66.0989 143.141C79.2954 115.884 103.365 97.587 132.136 92.9422C132.374 92.9114 132.614 92.9063 132.853 92.9269C132.982 92.9338 133.111 92.9412 133.243 92.9357L133.412 92.8821C133.846 92.7316 134.292 92.6175 134.744 92.5409C179.117 85.9522 226.025 99.2835 270.395 131.093C304.701 155.691 350.167 168.936 409.39 171.587L410.23 171.631C426.717 172.575 442.664 179.355 456.35 191.237C469.858 202.964 480.001 218.611 485.681 236.486C486.379 238.666 487.019 240.934 487.583 243.229C488.109 245.361 488.071 247.592 487.476 249.706C486.88 251.82 485.746 253.744 484.184 255.291V255.295L484.036 255.446C483.681 255.798 483.308 256.136 482.926 256.45L482.477 256.82C478.692 259.929 475.703 262.386 472.125 264.294C469.739 265.557 467.201 266.513 464.573 267.138C450.141 270.647 435.485 273.901 421.012 276.809C392.905 282.461 364.058 287.124 335.271 290.668C290.142 296.218 244.713 299.001 199.242 299ZM132.516 93.8923C132.428 93.8915 132.339 93.8974 132.252 93.9102C103.75 98.5116 79.9082 116.629 66.8425 143.616C63.8249 149.881 61.4305 156.426 59.6938 163.157C54.7337 182.81 54.5756 203.364 59.2329 223.09C61.7273 233.918 65.8777 244.298 71.5382 253.866C80.006 267.979 91.1027 279.101 103.629 286.029C121.562 295.95 140.94 296.644 159.679 297.315C218.29 299.404 276.974 296.856 335.181 289.696C363.949 286.155 392.777 281.495 420.866 275.846C435.329 272.94 449.974 269.689 464.396 266.181C466.961 265.573 469.438 264.64 471.767 263.407C475.272 261.538 478.233 259.105 481.981 256.025L482.43 255.656C482.759 255.386 483.081 255.096 483.39 254.796L483.478 254.703C486.558 251.607 487.756 247.521 486.765 243.494V243.494C486.206 241.224 485.573 238.98 484.882 236.823C473.279 200.307 443.262 174.501 410.19 172.607L409.354 172.563C382.301 171.352 358.628 167.998 336.985 162.308C311.149 155.517 288.593 145.293 269.944 131.921C225.744 100.234 179.032 86.9524 134.853 93.5099C134.44 93.5809 134.034 93.6859 133.639 93.8238L133.334 93.909C133.16 93.9167 132.987 93.9146 132.814 93.9028C132.712 93.8975 132.613 93.8923 132.516 93.8923H132.516Z" fill="#F0F0F0"/>
<path d="M191.813 151.353C190.59 150.182 189.338 143.653 187.776 142.99C188.944 145.564 188.096 146.245 188.09 149.07C188.105 150.674 187.917 152.274 187.531 153.831H161.07V133.233C161.07 131.383 161.435 129.55 162.145 127.84C162.856 126.13 163.896 124.577 165.208 123.268C166.52 121.959 168.078 120.921 169.792 120.213C171.507 119.505 173.344 119.14 175.199 119.14C175.908 119.154 176.611 119.257 177.294 119.446C179.568 120.059 181.641 121.257 183.305 122.921C184.968 124.585 186.164 126.655 186.772 128.926C188.789 136.28 191.997 148.521 191.813 151.353Z" fill="#2F2E41"/>
<path d="M162.623 176.691L162.636 160.637L153.174 161.48L156.513 171.606L154.95 197.057C154.193 197.226 153.5 197.612 152.959 198.167C152.417 198.723 152.049 199.423 151.899 200.183C151.749 200.944 151.825 201.731 152.116 202.449C152.407 203.168 152.902 203.786 153.539 204.229C154.176 204.671 154.929 204.92 155.706 204.943C156.482 204.967 157.249 204.764 157.912 204.361C158.575 203.957 159.106 203.37 159.44 202.67C159.775 201.971 159.898 201.19 159.795 200.422L162.623 176.691Z" fill="#FFB6B6"/>
<path d="M181.243 291.417L185.065 291.416L186.884 276.711H181.242L181.243 291.417Z" fill="#FFB6B6"/>
<path d="M179.948 289.536L185.991 289.176V291.759L191.736 295.716C192.02 295.911 192.233 296.192 192.346 296.517C192.458 296.842 192.464 297.195 192.361 297.523C192.258 297.852 192.053 298.139 191.775 298.342C191.498 298.546 191.162 298.656 190.817 298.656H183.623L182.383 296.102L181.899 298.656H179.186L179.948 289.536Z" fill="#2F2E41"/>
<path d="M159.141 291.417L162.963 291.416L164.781 276.711H159.14L159.141 291.417Z" fill="#FFB6B6"/>
<path d="M157.846 289.536L163.889 289.176V291.759L169.634 295.716C169.918 295.911 170.131 296.192 170.244 296.517C170.356 296.842 170.361 297.195 170.259 297.523C170.156 297.852 169.951 298.139 169.673 298.342C169.395 298.546 169.06 298.656 168.715 298.656H161.521L160.281 296.102L159.797 298.656H157.084L157.846 289.536Z" fill="#2F2E41"/>
<path d="M177.839 143.3L169.92 143.455L164.331 149.34L159.849 149.995C157.822 150.292 155.959 151.273 154.57 152.776C153.181 154.278 152.352 156.211 152.22 158.25L152.996 162.503H157.654L160.349 178.284C159.301 180.947 159.23 183.049 161.381 183.875L168.057 196.419L187.776 187.592C188.776 185.877 189.097 184.155 188.075 182.48L189.484 158.322H194.224C194.224 153.804 192.692 149.995 188.19 149.492C186.402 149.299 184.606 149.196 182.808 149.185L177.839 143.3Z" fill="#E6E6E6"/>
<path d="M187.776 187.592C187.776 187.592 168.523 190.999 161.381 183.875C161.381 183.875 160.655 185.103 159.563 187.139C159.249 187.725 158.642 188.121 158.275 188.831C157.942 189.475 157.085 190.268 156.723 190.999C156.431 191.587 156.899 192.356 156.595 192.991C152.937 200.644 148.664 211.438 149.58 218.565C150.171 223.162 151.391 233.857 152.676 245.345C152.777 246.242 151.964 247.395 152.064 248.3C152.16 249.153 153.169 249.758 153.264 250.613C153.327 251.18 152.623 251.759 152.686 252.326C152.755 252.949 153.592 253.558 153.661 254.178C155.421 270.04 157.033 284.849 157.033 284.849H166.039L167.738 251.027L166.349 238.698L169.61 213.764L174.113 237.459L174.692 250.795L179.45 285.468H187.776V251.902L188.397 250.158L187.776 247.922L188.397 245.512L187.776 242.888V187.592Z" fill="#2F2E41"/>
<path d="M180.27 138.719C179.043 140.345 177.298 141.505 175.322 142.009C173.346 142.513 171.257 142.33 169.399 141.492C167.54 140.653 166.024 139.209 165.099 137.396C164.174 135.583 163.895 133.509 164.309 131.517C164.723 129.525 165.805 127.734 167.377 126.437C168.948 125.14 170.916 124.416 172.955 124.383C174.994 124.351 176.984 125.012 178.596 126.258C180.208 127.504 181.347 129.26 181.825 131.238C181.851 131.345 181.872 131.452 181.894 131.563C182.146 132.802 182.132 134.081 181.852 135.315C181.572 136.549 181.032 137.709 180.27 138.719Z" fill="#FFB6B6"/>
<path d="M178.398 133.611C178.208 132.658 177.726 131.787 177.019 131.118C177.089 132.031 176.962 132.949 176.647 133.809C174.286 134.018 171.915 133.549 169.812 132.459C168.228 131.387 166.213 131.48 163.865 132.459C163.865 131.32 164.09 130.192 164.527 129.14C164.963 128.088 165.604 127.132 166.411 126.326C167.219 125.521 168.177 124.882 169.232 124.446C170.287 124.01 171.418 123.786 172.56 123.786H174.113C176.419 123.787 178.63 124.701 180.261 126.327C181.891 127.953 182.807 130.159 182.808 132.459C181.375 132.972 179.899 133.357 178.398 133.611Z" fill="#2F2E41"/>
<path d="M110.469 244.147C124.265 244.147 135.449 232.992 135.449 219.232C135.449 205.471 124.265 194.316 110.469 194.316C96.6731 194.316 85.4894 205.471 85.4894 219.232C85.4894 232.992 96.6731 244.147 110.469 244.147Z" fill="#F0F0F0"/>
<path d="M269.653 129.83C283.449 129.83 294.632 118.675 294.632 104.915C294.632 91.1549 283.449 80 269.653 80C255.857 80 244.673 91.1549 244.673 104.915C244.673 118.675 255.857 129.83 269.653 129.83Z" fill="#F0F0F0"/>
<path d="M468.02 248.055C481.816 248.055 493 236.9 493 223.14C493 209.379 481.816 198.225 468.02 198.225C454.225 198.225 443.041 209.379 443.041 223.14C443.041 236.9 454.225 248.055 468.02 248.055Z" fill="#F0F0F0"/>
<path d="M314.714 107.632V164.129C314.714 165.302 314.25 166.429 313.423 167.263C312.595 168.097 311.471 168.572 310.294 168.584C310.278 168.586 310.262 168.586 310.246 168.586H303.653C298.378 168.586 293.319 166.496 289.589 162.776C285.859 159.055 283.764 154.01 283.764 148.748V107.632C283.764 106.45 284.235 105.316 285.073 104.48C285.911 103.645 287.047 103.175 288.233 103.175H290.904C289.666 106.776 306.463 108.292 307.385 103.175H310.246C311.431 103.175 312.567 103.645 313.405 104.481C314.243 105.316 314.714 106.45 314.714 107.632Z" fill="#DF0754"/>
<path d="M295.15 98.9506C295.15 98.7957 295.212 98.6472 295.322 98.5377C295.432 98.4282 295.581 98.3666 295.736 98.3665H299.718C299.873 98.3669 300.022 98.4286 300.131 98.5381C300.241 98.6476 300.302 98.7959 300.302 98.9506C300.302 99.1052 300.241 99.2535 300.131 99.363C300.022 99.4725 299.873 99.5342 299.718 99.5347H295.736C295.581 99.5345 295.432 99.4729 295.322 99.3634C295.212 99.2539 295.15 99.1054 295.15 98.9506Z" fill="#3F3D56"/>
<path d="M311.614 175.752H286.43C284.476 175.75 282.603 174.975 281.222 173.597C279.84 172.219 279.063 170.351 279.061 168.402V128.908C278.922 128.809 278.81 128.679 278.732 128.528C278.654 128.377 278.614 128.209 278.614 128.039V124.067C278.614 123.898 278.654 123.73 278.732 123.579C278.81 123.428 278.922 123.298 279.061 123.199V122.133C278.922 122.034 278.81 121.903 278.732 121.752C278.654 121.601 278.614 121.434 278.614 121.264V117.292C278.614 117.122 278.654 116.954 278.732 116.803C278.81 116.652 278.922 116.522 279.061 116.423V114.496C278.89 114.405 278.747 114.269 278.648 114.103C278.549 113.937 278.497 113.747 278.497 113.553V109.582C278.497 109.388 278.549 109.198 278.648 109.032C278.747 108.866 278.89 108.73 279.061 108.639V103.359C279.063 101.41 279.84 99.542 281.222 98.1641C282.603 96.7861 284.476 96.011 286.43 96.0088H311.614C313.567 96.011 315.441 96.7861 316.822 98.1641C318.204 99.5421 318.981 101.41 318.983 103.359V114.867C319.116 114.95 319.225 115.065 319.301 115.202C319.377 115.338 319.417 115.492 319.417 115.648V123.222C319.417 123.378 319.377 123.531 319.301 123.668C319.225 123.804 319.116 123.92 318.983 124.002V168.402C318.981 170.351 318.204 172.219 316.822 173.597C315.441 174.975 313.567 175.75 311.614 175.752ZM286.43 96.9859C284.736 96.9877 283.112 97.6598 281.914 98.8546C280.716 100.049 280.042 101.669 280.04 103.359V109.47L279.569 109.488C279.545 109.489 279.521 109.499 279.504 109.516C279.487 109.534 279.477 109.557 279.477 109.582V113.553C279.477 113.578 279.487 113.601 279.504 113.619C279.521 113.636 279.545 113.646 279.569 113.647L280.04 113.665V117.109L279.668 117.2C279.647 117.205 279.629 117.217 279.615 117.234C279.602 117.25 279.594 117.27 279.594 117.292V121.264C279.594 121.285 279.602 121.305 279.615 121.322C279.629 121.338 279.647 121.35 279.668 121.355L280.04 121.447V123.885L279.668 123.976C279.647 123.981 279.629 123.993 279.615 124.009C279.602 124.026 279.594 124.046 279.594 124.067V128.039C279.594 128.061 279.602 128.081 279.615 128.097C279.628 128.114 279.647 128.126 279.668 128.131L280.04 128.222V168.402C280.042 170.092 280.716 171.712 281.914 172.906C283.112 174.101 284.736 174.773 286.43 174.775H311.614C313.308 174.773 314.932 174.101 316.13 172.906C317.328 171.712 318.002 170.092 318.003 168.402V123.166H318.437V115.704H318.003V103.359C318.002 101.669 317.328 100.049 316.13 98.8547C314.932 97.6599 313.308 96.9878 311.614 96.9858L286.43 96.9859Z" fill="#3F3D56"/>
<path d="M301.943 99.5347C302.267 99.5347 302.529 99.2732 302.529 98.9506C302.529 98.628 302.267 98.3665 301.943 98.3665C301.62 98.3665 301.358 98.628 301.358 98.9506C301.358 99.2732 301.62 99.5347 301.943 99.5347Z" fill="#3F3D56"/>
<path d="M174.55 212.1H109.021C108.091 212.098 107.199 211.728 106.541 211.072C105.883 210.416 105.512 209.526 105.509 208.598V176.751C105.512 175.823 105.882 174.934 106.54 174.277C107.198 173.621 108.09 173.251 109.021 173.249H174.549C175.48 173.251 176.371 173.621 177.03 174.277C177.688 174.933 178.058 175.823 178.061 176.751V208.598C178.059 209.526 177.688 210.415 177.03 211.072C176.372 211.728 175.48 212.098 174.55 212.1Z" fill="white"/>
<path d="M174.55 212.1H109.021C108.091 212.098 107.199 211.728 106.541 211.072C105.883 210.416 105.512 209.526 105.509 208.598V176.751C105.512 175.823 105.882 174.934 106.54 174.277C107.198 173.621 108.09 173.251 109.021 173.249H174.549C175.48 173.251 176.371 173.621 177.03 174.277C177.688 174.933 178.058 175.823 178.061 176.751V208.598C178.059 209.526 177.688 210.415 177.03 211.072C176.372 211.728 175.48 212.098 174.55 212.1ZM109.021 174.226C108.35 174.228 107.707 174.494 107.233 174.968C106.758 175.441 106.491 176.082 106.489 176.752V208.598C106.491 209.267 106.758 209.908 107.233 210.382C107.707 210.855 108.351 211.122 109.022 211.123H174.549C175.22 211.122 175.863 210.855 176.337 210.381C176.812 209.908 177.079 209.267 177.081 208.597V176.751C177.079 176.082 176.812 175.441 176.337 174.967C175.863 174.494 175.22 174.227 174.549 174.226L109.021 174.226Z" fill="#3F3D56"/>
<path d="M145.297 207.394C132.374 207.394 118.898 207.271 113.87 207.191C113.208 207.177 112.578 206.906 112.114 206.436C111.651 205.965 111.389 205.332 111.387 204.672V178.31C111.387 178.074 111.481 177.847 111.649 177.68C111.816 177.513 112.043 177.418 112.28 177.417H171.288C171.525 177.418 171.752 177.512 171.92 177.678C172.088 177.845 172.182 178.072 172.183 178.308V196.194C172.172 199.114 171.014 201.913 168.958 203.991C166.902 206.069 164.111 207.26 161.184 207.309C156.498 207.37 150.949 207.394 145.297 207.394Z" fill="#DF0754"/>
<path d="M167.786 194.551H114.467C114.02 194.55 113.585 194.411 113.22 194.155C112.855 193.898 112.578 193.536 112.427 193.117L106.392 176.23C106.276 175.904 106.24 175.555 106.287 175.213C106.333 174.87 106.462 174.544 106.662 174.261C106.861 173.979 107.126 173.748 107.433 173.588C107.741 173.429 108.082 173.345 108.429 173.344L175.076 173.252C175.393 173.251 175.706 173.32 175.993 173.454C176.281 173.587 176.535 173.782 176.739 174.024C176.942 174.266 177.09 174.55 177.172 174.855C177.254 175.16 177.267 175.48 177.212 175.791L177.263 175.813L177.072 176.258L177.07 176.263L169.774 193.242C169.608 193.63 169.331 193.962 168.977 194.194C168.624 194.427 168.209 194.551 167.786 194.551ZM175.08 174.229L108.431 174.321C108.241 174.322 108.054 174.367 107.885 174.455C107.717 174.542 107.572 174.669 107.463 174.824C107.353 174.978 107.283 175.157 107.257 175.345C107.231 175.532 107.251 175.723 107.315 175.902L113.35 192.788C113.433 193.018 113.584 193.216 113.784 193.357C113.984 193.497 114.223 193.573 114.467 193.574H167.786C168.018 193.574 168.244 193.506 168.438 193.379C168.631 193.251 168.783 193.07 168.874 192.857L176.17 175.878L176.528 176.031L176.17 175.878C176.247 175.698 176.278 175.501 176.261 175.306C176.243 175.111 176.178 174.924 176.07 174.76C175.962 174.597 175.815 174.463 175.642 174.37C175.469 174.277 175.276 174.229 175.08 174.229Z" fill="#3F3D56"/>
<path d="M141.686 198.227C143.991 198.227 145.861 196.362 145.861 194.062C145.861 191.763 143.991 189.898 141.686 189.898C139.38 189.898 137.511 191.763 137.511 194.062C137.511 196.362 139.38 198.227 141.686 198.227Z" fill="white"/>
<path d="M299.4 162.075C301.706 162.075 303.575 160.211 303.575 157.911C303.575 155.611 301.706 153.747 299.4 153.747C297.094 153.747 295.225 155.611 295.225 157.911C295.225 160.211 297.094 162.075 299.4 162.075Z" fill="white"/>
<path d="M457.308 218.313L446.156 207.331C445.613 206.792 444.969 206.365 444.26 206.075C443.552 205.785 442.793 205.638 442.027 205.641H441.988C441.216 205.643 440.452 205.798 439.741 206.096C439.03 206.395 438.385 206.831 437.844 207.38C435.35 209.897 433.932 213.28 433.887 216.819C433.842 220.357 435.175 223.775 437.604 226.354C437.722 226.481 437.844 226.604 437.966 226.726C438.645 227.398 439.394 227.996 440.2 228.509C442.405 229.93 444.976 230.682 447.601 230.673H447.684C449.486 230.667 451.268 230.305 452.929 229.607C454.589 228.909 456.094 227.89 457.357 226.608C458.452 225.501 459.061 224.006 459.052 222.451C459.043 220.896 458.416 219.408 457.308 218.313ZM456.662 225.92C454.591 228 451.865 229.305 448.942 229.615C446.019 229.925 443.079 229.22 440.616 227.62C439.912 227.155 439.254 226.623 438.652 226.032C436.249 223.665 434.887 220.442 434.866 217.074C434.845 213.705 436.166 210.466 438.54 208.069C438.991 207.61 439.529 207.246 440.122 206.997C440.716 206.748 441.353 206.619 441.997 206.618H442.027C442.665 206.616 443.296 206.739 443.886 206.98C444.476 207.221 445.013 207.576 445.465 208.025L456.618 219.012C457.541 219.923 458.064 221.161 458.073 222.457C458.081 223.752 457.574 224.997 456.662 225.92Z" fill="#3F3D56"/>
<path d="M420.716 182.269L409.563 171.282C408.465 170.196 406.981 169.588 405.434 169.592H405.4C404.627 169.595 403.863 169.751 403.151 170.05C402.439 170.349 401.793 170.786 401.251 171.336C399.19 173.424 397.853 176.116 397.437 179.017C397.021 181.919 397.548 184.876 398.939 187.457L398.944 187.462C399.519 188.518 400.232 189.492 401.065 190.359C401.158 190.467 401.266 190.574 401.374 190.682C403.935 193.217 407.399 194.637 411.008 194.629H411.096C412.898 194.622 414.681 194.258 416.341 193.56C418.001 192.861 419.507 191.841 420.77 190.56C421.312 190.012 421.741 189.363 422.032 188.65C422.322 187.936 422.469 187.173 422.464 186.403C422.459 185.633 422.302 184.872 422.002 184.163C421.702 183.453 421.265 182.81 420.716 182.269V182.269ZM420.069 189.876C418.897 191.065 417.5 192.011 415.959 192.66C414.418 193.308 412.764 193.645 411.091 193.652H411.008C408.497 193.651 406.041 192.909 403.951 191.52C401.861 190.131 400.23 188.157 399.262 185.845C398.294 183.534 398.033 180.988 398.511 178.529C398.99 176.07 400.187 173.807 401.952 172.025C402.865 171.104 404.107 170.582 405.405 170.574C406.704 170.566 407.953 171.072 408.877 171.981L420.03 182.963C420.953 183.875 421.475 185.115 421.482 186.411C421.49 187.707 420.982 188.953 420.069 189.876L420.069 189.876Z" fill="#3F3D56"/>
<path d="M458.021 221.766L445.726 209.653C444.92 208.861 443.831 208.42 442.699 208.427C441.567 208.434 440.484 208.888 439.688 209.691C438.692 210.695 437.904 211.884 437.369 213.192C436.834 214.5 436.563 215.9 436.571 217.313C436.579 218.725 436.866 220.122 437.415 221.424C437.965 222.725 438.767 223.906 439.774 224.899C440.782 225.891 441.975 226.676 443.287 227.208C444.599 227.74 446.003 228.009 447.419 227.999C448.835 227.99 450.235 227.702 451.54 227.152C452.844 226.602 454.027 225.802 455.021 224.796L458.021 221.766Z" fill="#DF0754"/>
<path d="M421.431 185.72L409.135 173.608C408.329 172.815 407.241 172.374 406.109 172.381C404.977 172.388 403.894 172.843 403.097 173.645C402.101 174.649 401.313 175.839 400.778 177.146C400.244 178.454 399.972 179.854 399.98 181.267C399.988 182.679 400.275 184.076 400.825 185.378C401.375 186.679 402.176 187.86 403.184 188.853C404.191 189.845 405.385 190.63 406.697 191.162C408.008 191.694 409.412 191.963 410.829 191.953C412.245 191.944 413.645 191.656 414.949 191.106C416.254 190.557 417.437 189.756 418.431 188.75L421.431 185.72Z" fill="#DF0754"/>
<path d="M444.51 229.31L444.216 230.082C442.835 229.559 441.496 229.035 440.2 228.509C417.238 219.163 406.277 208.225 398.944 187.462L398.939 187.457C398.592 186.48 398.254 185.481 397.926 184.458L398.699 184.209C398.958 185.192 399.337 186.141 399.826 187.032C400.228 188.171 400.641 189.28 401.065 190.359C407.957 207.883 418.12 217.898 437.604 226.354C438.584 226.779 439.588 227.201 440.616 227.62C441.811 228.396 443.127 228.967 444.51 229.31Z" fill="#3F3D56"/>
<path d="M409.359 193.74L408.67 194.435L434.109 219.496L434.798 218.8L409.359 193.74Z" fill="#3F3D56"/>
<path d="M193.987 172.975L194 156.92L184.538 157.763L187.878 167.889L175.756 186.216C174.999 186.386 174.306 186.771 173.765 187.327C173.223 187.882 172.855 188.582 172.705 189.343C172.555 190.103 172.631 190.89 172.922 191.608C173.213 192.327 173.708 192.945 174.345 193.388C174.983 193.831 175.735 194.079 176.512 194.102C177.288 194.126 178.055 193.924 178.718 193.52C179.381 193.116 179.912 192.529 180.246 191.83C180.581 191.13 180.704 190.349 180.601 189.581L193.987 172.975Z" fill="#FFB6B6"/>
</g>
</svg>
